<svg xmlns="http://www.w3.org/2000/svg" width="720" height="260" viewBox="0 0 720 260" role="img" aria-labelledby="title desc">
  <title id="title">Bengaluru climate risk illustration</title>
  <desc id="desc">A calm city edge with tree cover, water body, rain cloud, sun, and risk markers.</desc>
  <rect width="720" height="260" rx="16" fill="#f0fdf4"/>
  <path d="M0 194c62-22 112-18 168-7 82 17 143-15 218-23 92-10 141 25 212 21 51-3 88-20 122-38v113H0v-66Z" fill="#dbeafe"/>
  <path d="M0 206c73-24 136-13 193 0 63 14 113 2 170-13 79-21 145-9 201 5 58 15 104 11 156-10v72H0v-54Z" fill="#bfdbfe"/>
  <path d="M52 156h38v58H52v-58Zm54-35h46v93h-46v-93Zm65 22h34v71h-34v-71Zm357-14h44v85h-44v-85Zm63 27h37v58h-37v-58Z" fill="#e2e8f0" stroke="#cbd5e1"/>
  <path d="M276 104h42v110h-42V104Zm55 32h37v78h-37v-78Zm52-20h48v98h-48v-98Z" fill="#ffffff" stroke="#cbd5e1"/>
  <path d="M277 177h153" stroke="#94a3b8" stroke-width="3" stroke-linecap="round"/>
  <circle cx="614" cy="62" r="26" fill="#fef3c7" stroke="#d97706" stroke-width="4"/>
  <path d="M87 65c12-21 47-20 59 1 18 0 31 14 31 30H52c0-17 14-31 35-31Z" fill="#dbeafe" stroke="#2563eb" stroke-width="4" stroke-linejoin="round"/>
  <path d="M77 114v19m32-19v28m33-28v19" stroke="#2563eb" stroke-width="5" stroke-linecap="round"/>
  <path d="M474 171c0-30 42-30 42 0v43h-42v-43Z" fill="#d1fae5" stroke="#059669" stroke-width="4"/>
  <path d="M494 214v-62" stroke="#065f46" stroke-width="5" stroke-linecap="round"/>
  <path d="M494 178c-23-7-30-23-29-42 19 1 31 12 35 31" fill="#d1fae5" stroke="#059669" stroke-width="4" stroke-linejoin="round"/>
  <path d="M496 167c7-22 21-32 43-31 0 22-12 36-36 42" fill="#d1fae5" stroke="#059669" stroke-width="4" stroke-linejoin="round"/>
  <path d="M230 197c-15 18-15 38 0 51 15-13 15-33 0-51Z" fill="#fee2e2" stroke="#dc2626" stroke-width="4"/>
  <path d="M231 213v19" stroke="#991b1b" stroke-width="4" stroke-linecap="round"/>
</svg>
